solid ASCII
  facet normal 0.000000e+00 1.000000e+00 0.000000e+00
    outer loop
      vertex   7.800000e+02 -4.060000e+01 -1.620000e+03
      vertex   7.800000e+02 -4.060000e+01 -2.000000e+01
      vertex   1.180000e+03 -4.060000e+01 -1.620000e+03
    endloop
  endfacet
  facet normal 0.000000e+00 1.000000e+00 -0.000000e+00
    outer loop
      vertex   1.180000e+03 -4.060000e+01 -1.620000e+03
      vertex   7.800000e+02 -4.060000e+01 -2.000000e+01
      vertex   1.180000e+03 -4.060000e+01 -2.000000e+01
    endloop
  endfacet
  facet normal 1.000000e+00 0.000000e+00 0.000000e+00
    outer loop
      vertex   1.180000e+03 -8.406000e+02 -1.620000e+03
      vertex   1.180000e+03 -4.060000e+01 -1.620000e+03
      vertex   1.180000e+03 -8.406000e+02 -2.000000e+01
    endloop
  endfacet
  facet normal 1.000000e+00 -0.000000e+00 0.000000e+00
    outer loop
      vertex   1.180000e+03 -8.406000e+02 -2.000000e+01
      vertex   1.180000e+03 -4.060000e+01 -1.620000e+03
      vertex   1.180000e+03 -4.060000e+01 -2.000000e+01
    endloop
  endfacet
  facet normal 0.000000e+00 -1.000000e+00 0.000000e+00
    outer loop
      vertex   7.800000e+02 -8.406000e+02 -1.620000e+03
      vertex   1.180000e+03 -8.406000e+02 -1.620000e+03
      vertex   7.800000e+02 -8.406000e+02 -2.000000e+01
    endloop
  endfacet
  facet normal 0.000000e+00 -1.000000e+00 0.000000e+00
    outer loop
      vertex   7.800000e+02 -8.406000e+02 -2.000000e+01
      vertex   1.180000e+03 -8.406000e+02 -1.620000e+03
      vertex   1.180000e+03 -8.406000e+02 -2.000000e+01
    endloop
  endfacet
  facet normal -1.000000e+00 0.000000e+00 0.000000e+00
    outer loop
      vertex   7.800000e+02 -4.060000e+01 -1.620000e+03
      vertex   7.800000e+02 -8.406000e+02 -1.620000e+03
      vertex   7.800000e+02 -4.060000e+01 -2.000000e+01
    endloop
  endfacet
  facet normal -1.000000e+00 -0.000000e+00 0.000000e+00
    outer loop
      vertex   7.800000e+02 -4.060000e+01 -2.000000e+01
      vertex   7.800000e+02 -8.406000e+02 -1.620000e+03
      vertex   7.800000e+02 -8.406000e+02 -2.000000e+01
    endloop
  endfacet
  facet normal 0.000000e+00 0.000000e+00 1.000000e+00
    outer loop
      vertex   1.180000e+03 -4.060000e+01 -2.000000e+01
      vertex   7.800000e+02 -4.060000e+01 -2.000000e+01
      vertex   1.180000e+03 -8.406000e+02 -2.000000e+01
    endloop
  endfacet
  facet normal 0.000000e+00 0.000000e+00 1.000000e+00
    outer loop
      vertex   1.180000e+03 -8.406000e+02 -2.000000e+01
      vertex   7.800000e+02 -4.060000e+01 -2.000000e+01
      vertex   7.800000e+02 -8.406000e+02 -2.000000e+01
    endloop
  endfacet
  facet normal 0.000000e+00 0.000000e+00 -1.000000e+00
    outer loop
      vertex   7.800000e+02 -4.060000e+01 -1.620000e+03
      vertex   1.180000e+03 -4.060000e+01 -1.620000e+03
      vertex   7.800000e+02 -8.406000e+02 -1.620000e+03
    endloop
  endfacet
  facet normal 0.000000e+00 0.000000e+00 -1.000000e+00
    outer loop
      vertex   7.800000e+02 -8.406000e+02 -1.620000e+03
      vertex   1.180000e+03 -4.060000e+01 -1.620000e+03
      vertex   1.180000e+03 -8.406000e+02 -1.620000e+03
    endloop
  endfacet
endsolid
