solid ASCII
  facet normal -1.000000e+00 0.000000e+00 0.000000e+00
    outer loop
      vertex   -1.225000e+03 -3.406000e+02 -1.620000e+03
      vertex   -1.225000e+03 -3.406000e+02 -2.000000e+01
      vertex   -1.225000e+03 4.594000e+02 -1.620000e+03
    endloop
  endfacet
  facet normal -1.000000e+00 0.000000e+00 0.000000e+00
    outer loop
      vertex   -1.225000e+03 4.594000e+02 -1.620000e+03
      vertex   -1.225000e+03 -3.406000e+02 -2.000000e+01
      vertex   -1.225000e+03 4.594000e+02 -2.000000e+01
    endloop
  endfacet
  facet normal 0.000000e+00 1.000000e+00 -0.000000e+00
    outer loop
      vertex   -8.250000e+02 4.594000e+02 -1.620000e+03
      vertex   -1.225000e+03 4.594000e+02 -1.620000e+03
      vertex   -8.250000e+02 4.594000e+02 -2.000000e+01
    endloop
  endfacet
  facet normal 0.000000e+00 1.000000e+00 0.000000e+00
    outer loop
      vertex   -8.250000e+02 4.594000e+02 -2.000000e+01
      vertex   -1.225000e+03 4.594000e+02 -1.620000e+03
      vertex   -1.225000e+03 4.594000e+02 -2.000000e+01
    endloop
  endfacet
  facet normal 1.000000e+00 0.000000e+00 -0.000000e+00
    outer loop
      vertex   -8.250000e+02 4.594000e+02 -1.620000e+03
      vertex   -8.250000e+02 4.594000e+02 -2.000000e+01
      vertex   -8.250000e+02 -3.406000e+02 -1.620000e+03
    endloop
  endfacet
  facet normal 1.000000e+00 0.000000e+00 0.000000e+00
    outer loop
      vertex   -8.250000e+02 -3.406000e+02 -1.620000e+03
      vertex   -8.250000e+02 4.594000e+02 -2.000000e+01
      vertex   -8.250000e+02 -3.406000e+02 -2.000000e+01
    endloop
  endfacet
  facet normal 0.000000e+00 -1.000000e+00 0.000000e+00
    outer loop
      vertex   -1.225000e+03 -3.406000e+02 -1.620000e+03
      vertex   -8.250000e+02 -3.406000e+02 -1.620000e+03
      vertex   -1.225000e+03 -3.406000e+02 -2.000000e+01
    endloop
  endfacet
  facet normal 0.000000e+00 -1.000000e+00 0.000000e+00
    outer loop
      vertex   -1.225000e+03 -3.406000e+02 -2.000000e+01
      vertex   -8.250000e+02 -3.406000e+02 -1.620000e+03
      vertex   -8.250000e+02 -3.406000e+02 -2.000000e+01
    endloop
  endfacet
  facet normal 0.000000e+00 0.000000e+00 1.000000e+00
    outer loop
      vertex   -1.225000e+03 -3.406000e+02 -2.000000e+01
      vertex   -8.250000e+02 -3.406000e+02 -2.000000e+01
      vertex   -1.225000e+03 4.594000e+02 -2.000000e+01
    endloop
  endfacet
  facet normal -0.000000e+00 0.000000e+00 1.000000e+00
    outer loop
      vertex   -1.225000e+03 4.594000e+02 -2.000000e+01
      vertex   -8.250000e+02 -3.406000e+02 -2.000000e+01
      vertex   -8.250000e+02 4.594000e+02 -2.000000e+01
    endloop
  endfacet
  facet normal 0.000000e+00 0.000000e+00 -1.000000e+00
    outer loop
      vertex   -1.225000e+03 4.594000e+02 -1.620000e+03
      vertex   -8.250000e+02 4.594000e+02 -1.620000e+03
      vertex   -1.225000e+03 -3.406000e+02 -1.620000e+03
    endloop
  endfacet
  facet normal 0.000000e+00 0.000000e+00 -1.000000e+00
    outer loop
      vertex   -1.225000e+03 -3.406000e+02 -1.620000e+03
      vertex   -8.250000e+02 4.594000e+02 -1.620000e+03
      vertex   -8.250000e+02 -3.406000e+02 -1.620000e+03
    endloop
  endfacet
endsolid
