solid ASCII
  facet normal 0.000000e+00 0.000000e+00 1.000000e+00
    outer loop
      vertex   -4.520000e+03 -5.635100e+03 2.874000e+03
      vertex   3.724000e+03 -5.635100e+03 2.874000e+03
      vertex   -4.520000e+03 2.683400e+03 2.874000e+03
    endloop
  endfacet
  facet normal -0.000000e+00 0.000000e+00 1.000000e+00
    outer loop
      vertex   -4.520000e+03 2.683400e+03 2.874000e+03
      vertex   3.724000e+03 -5.635100e+03 2.874000e+03
      vertex   3.724000e+03 2.683400e+03 2.874000e+03
    endloop
  endfacet
  facet normal -1.000000e+00 0.000000e+00 0.000000e+00
    outer loop
      vertex   -4.520000e+03 -5.635100e+03 2.874000e+03
      vertex   -4.520000e+03 2.683400e+03 2.874000e+03
      vertex   -4.520000e+03 -5.635100e+03 1.350000e+03
    endloop
  endfacet
  facet normal -1.000000e+00 0.000000e+00 0.000000e+00
    outer loop
      vertex   -4.520000e+03 -5.635100e+03 1.350000e+03
      vertex   -4.520000e+03 2.683400e+03 2.874000e+03
      vertex   -4.520000e+03 2.683400e+03 1.350000e+03
    endloop
  endfacet
  facet normal 0.000000e+00 0.000000e+00 -1.000000e+00
    outer loop
      vertex   3.724000e+03 -5.635100e+03 1.350000e+03
      vertex   -4.520000e+03 -5.635100e+03 1.350000e+03
      vertex   3.724000e+03 2.683400e+03 1.350000e+03
    endloop
  endfacet
  facet normal -0.000000e+00 0.000000e+00 -1.000000e+00
    outer loop
      vertex   3.724000e+03 2.683400e+03 1.350000e+03
      vertex   -4.520000e+03 -5.635100e+03 1.350000e+03
      vertex   -4.520000e+03 2.683400e+03 1.350000e+03
    endloop
  endfacet
  facet normal 1.000000e+00 0.000000e+00 0.000000e+00
    outer loop
      vertex   3.724000e+03 -5.635100e+03 1.350000e+03
      vertex   3.724000e+03 2.683400e+03 1.350000e+03
      vertex   3.724000e+03 -5.635100e+03 2.874000e+03
    endloop
  endfacet
  facet normal 1.000000e+00 -0.000000e+00 0.000000e+00
    outer loop
      vertex   3.724000e+03 -5.635100e+03 2.874000e+03
      vertex   3.724000e+03 2.683400e+03 1.350000e+03
      vertex   3.724000e+03 2.683400e+03 2.874000e+03
    endloop
  endfacet
  facet normal 0.000000e+00 1.000000e+00 0.000000e+00
    outer loop
      vertex   3.724000e+03 2.683400e+03 2.874000e+03
      vertex   3.724000e+03 2.683400e+03 1.350000e+03
      vertex   -4.520000e+03 2.683400e+03 2.874000e+03
    endloop
  endfacet
  facet normal 0.000000e+00 1.000000e+00 0.000000e+00
    outer loop
      vertex   -4.520000e+03 2.683400e+03 2.874000e+03
      vertex   3.724000e+03 2.683400e+03 1.350000e+03
      vertex   -4.520000e+03 2.683400e+03 1.350000e+03
    endloop
  endfacet
  facet normal 0.000000e+00 -1.000000e+00 0.000000e+00
    outer loop
      vertex   -4.520000e+03 -5.635100e+03 2.874000e+03
      vertex   -4.520000e+03 -5.635100e+03 1.350000e+03
      vertex   3.724000e+03 -5.635100e+03 2.874000e+03
    endloop
  endfacet
  facet normal 0.000000e+00 -1.000000e+00 -0.000000e+00
    outer loop
      vertex   3.724000e+03 -5.635100e+03 2.874000e+03
      vertex   -4.520000e+03 -5.635100e+03 1.350000e+03
      vertex   3.724000e+03 -5.635100e+03 1.350000e+03
    endloop
  endfacet
endsolid
