solid ASCII
  facet normal 0.000000e+00 0.000000e+00 1.000000e+00
    outer loop
      vertex   4.000000e+02 -3.261000e+02 -8.200000e+02
      vertex   -4.000000e+02 -3.261000e+02 -8.200000e+02
      vertex   4.000000e+02 -4.961000e+02 -8.200000e+02
    endloop
  endfacet
  facet normal 0.000000e+00 0.000000e+00 1.000000e+00
    outer loop
      vertex   4.000000e+02 -4.961000e+02 -8.200000e+02
      vertex   -4.000000e+02 -3.261000e+02 -8.200000e+02
      vertex   -4.000000e+02 -4.961000e+02 -8.200000e+02
    endloop
  endfacet
  facet normal 0.000000e+00 1.000000e+00 0.000000e+00
    outer loop
      vertex   -4.000000e+02 -9.610000e+01 -1.620000e+03
      vertex   -4.000000e+02 -9.610000e+01 -5.900000e+02
      vertex   4.000000e+02 -9.610000e+01 -1.620000e+03
    endloop
  endfacet
  facet normal 0.000000e+00 1.000000e+00 -0.000000e+00
    outer loop
      vertex   4.000000e+02 -9.610000e+01 -1.620000e+03
      vertex   -4.000000e+02 -9.610000e+01 -5.900000e+02
      vertex   4.000000e+02 -9.610000e+01 -5.900000e+02
    endloop
  endfacet
  facet normal 1.000000e+00 -0.000000e+00 0.000000e+00
    outer loop
      vertex   4.000000e+02 -4.961000e+02 -8.200000e+02
      vertex   4.000000e+02 -4.961000e+02 -1.620000e+03
      vertex   4.000000e+02 -3.261000e+02 -8.200000e+02
    endloop
  endfacet
  facet normal 1.000000e+00 0.000000e+00 0.000000e+00
    outer loop
      vertex   4.000000e+02 -3.261000e+02 -8.200000e+02
      vertex   4.000000e+02 -4.961000e+02 -1.620000e+03
      vertex   4.000000e+02 -9.610000e+01 -1.620000e+03
    endloop
  endfacet
  facet normal 1.000000e+00 -0.000000e+00 0.000000e+00
    outer loop
      vertex   4.000000e+02 -3.261000e+02 -8.200000e+02
      vertex   4.000000e+02 -9.610000e+01 -1.620000e+03
      vertex   4.000000e+02 -9.610000e+01 -5.900000e+02
    endloop
  endfacet
  facet normal 1.000000e+00 0.000000e+00 0.000000e+00
    outer loop
      vertex   4.000000e+02 -9.610000e+01 -5.900000e+02
      vertex   4.000000e+02 -3.261000e+02 -5.900000e+02
      vertex   4.000000e+02 -3.261000e+02 -8.200000e+02
    endloop
  endfacet
  facet normal 0.000000e+00 -1.000000e+00 0.000000e+00
    outer loop
      vertex   -4.000000e+02 -4.961000e+02 -1.620000e+03
      vertex   4.000000e+02 -4.961000e+02 -1.620000e+03
      vertex   -4.000000e+02 -4.961000e+02 -8.200000e+02
    endloop
  endfacet
  facet normal 0.000000e+00 -1.000000e+00 0.000000e+00
    outer loop
      vertex   -4.000000e+02 -4.961000e+02 -8.200000e+02
      vertex   4.000000e+02 -4.961000e+02 -1.620000e+03
      vertex   4.000000e+02 -4.961000e+02 -8.200000e+02
    endloop
  endfacet
  facet normal -1.000000e+00 0.000000e+00 -0.000000e+00
    outer loop
      vertex   -4.000000e+02 -9.610000e+01 -5.900000e+02
      vertex   -4.000000e+02 -9.610000e+01 -1.620000e+03
      vertex   -4.000000e+02 -3.261000e+02 -8.200000e+02
    endloop
  endfacet
  facet normal -1.000000e+00 0.000000e+00 -0.000000e+00
    outer loop
      vertex   -4.000000e+02 -3.261000e+02 -8.200000e+02
      vertex   -4.000000e+02 -9.610000e+01 -1.620000e+03
      vertex   -4.000000e+02 -4.961000e+02 -1.620000e+03
    endloop
  endfacet
  facet normal -1.000000e+00 -0.000000e+00 0.000000e+00
    outer loop
      vertex   -4.000000e+02 -3.261000e+02 -8.200000e+02
      vertex   -4.000000e+02 -4.961000e+02 -1.620000e+03
      vertex   -4.000000e+02 -4.961000e+02 -8.200000e+02
    endloop
  endfacet
  facet normal -1.000000e+00 0.000000e+00 0.000000e+00
    outer loop
      vertex   -4.000000e+02 -3.261000e+02 -8.200000e+02
      vertex   -4.000000e+02 -3.261000e+02 -5.900000e+02
      vertex   -4.000000e+02 -9.610000e+01 -5.900000e+02
    endloop
  endfacet
  facet normal 0.000000e+00 0.000000e+00 -1.000000e+00
    outer loop
      vertex   -4.000000e+02 -9.610000e+01 -1.620000e+03
      vertex   4.000000e+02 -9.610000e+01 -1.620000e+03
      vertex   -4.000000e+02 -4.961000e+02 -1.620000e+03
    endloop
  endfacet
  facet normal 0.000000e+00 0.000000e+00 -1.000000e+00
    outer loop
      vertex   -4.000000e+02 -4.961000e+02 -1.620000e+03
      vertex   4.000000e+02 -9.610000e+01 -1.620000e+03
      vertex   4.000000e+02 -4.961000e+02 -1.620000e+03
    endloop
  endfacet
  facet normal 0.000000e+00 -1.000000e+00 0.000000e+00
    outer loop
      vertex   -4.000000e+02 -3.261000e+02 -8.200000e+02
      vertex   4.000000e+02 -3.261000e+02 -8.200000e+02
      vertex   -4.000000e+02 -3.261000e+02 -5.900000e+02
    endloop
  endfacet
  facet normal 0.000000e+00 -1.000000e+00 0.000000e+00
    outer loop
      vertex   -4.000000e+02 -3.261000e+02 -5.900000e+02
      vertex   4.000000e+02 -3.261000e+02 -8.200000e+02
      vertex   4.000000e+02 -3.261000e+02 -5.900000e+02
    endloop
  endfacet
  facet normal 0.000000e+00 0.000000e+00 1.000000e+00
    outer loop
      vertex   4.000000e+02 -9.610000e+01 -5.900000e+02
      vertex   -4.000000e+02 -9.610000e+01 -5.900000e+02
      vertex   4.000000e+02 -3.261000e+02 -5.900000e+02
    endloop
  endfacet
  facet normal 0.000000e+00 0.000000e+00 1.000000e+00
    outer loop
      vertex   4.000000e+02 -3.261000e+02 -5.900000e+02
      vertex   -4.000000e+02 -9.610000e+01 -5.900000e+02
      vertex   -4.000000e+02 -3.261000e+02 -5.900000e+02
    endloop
  endfacet
endsolid
