solid ASCII
  facet normal -1.000000e+00 0.000000e+00 0.000000e+00
    outer loop
      vertex   -4.520000e+03 1.134400e+03 1.350000e+03
      vertex   -4.520000e+03 2.683400e+03 1.350000e+03
      vertex   -4.520000e+03 1.134400e+03 -1.620000e+03
    endloop
  endfacet
  facet normal -1.000000e+00 0.000000e+00 0.000000e+00
    outer loop
      vertex   -4.520000e+03 1.134400e+03 -1.620000e+03
      vertex   -4.520000e+03 2.683400e+03 1.350000e+03
      vertex   -4.520000e+03 2.683400e+03 -1.620000e+03
    endloop
  endfacet
  facet normal 1.000000e+00 0.000000e+00 0.000000e+00
    outer loop
      vertex   -2.996000e+03 -6.656000e+02 1.350000e+03
      vertex   -2.996000e+03 -2.553100e+03 1.350000e+03
      vertex   -2.996000e+03 -6.656000e+02 -1.620000e+03
    endloop
  endfacet
  facet normal 1.000000e+00 0.000000e+00 0.000000e+00
    outer loop
      vertex   -2.996000e+03 -6.656000e+02 -1.620000e+03
      vertex   -2.996000e+03 -2.553100e+03 1.350000e+03
      vertex   -2.996000e+03 -2.553100e+03 -1.620000e+03
    endloop
  endfacet
  facet normal 0.000000e+00 0.000000e+00 -1.000000e+00
    outer loop
      vertex   -2.996000e+03 1.134400e+03 -1.620000e+03
      vertex   -4.520000e+03 1.134400e+03 -1.620000e+03
      vertex   -2.996000e+03 1.159400e+03 -1.620000e+03
    endloop
  endfacet
  facet normal -0.000000e+00 0.000000e+00 -1.000000e+00
    outer loop
      vertex   -2.996000e+03 1.159400e+03 -1.620000e+03
      vertex   -4.520000e+03 1.134400e+03 -1.620000e+03
      vertex   -4.520000e+03 2.683400e+03 -1.620000e+03
    endloop
  endfacet
  facet normal 0.000000e+00 0.000000e+00 -1.000000e+00
    outer loop
      vertex   -2.996000e+03 1.159400e+03 -1.620000e+03
      vertex   -4.520000e+03 2.683400e+03 -1.620000e+03
      vertex   -2.196000e+03 1.159400e+03 -1.620000e+03
    endloop
  endfacet
  facet normal 0.000000e+00 0.000000e+00 -1.000000e+00
    outer loop
      vertex   -2.196000e+03 1.159400e+03 -1.620000e+03
      vertex   -4.520000e+03 2.683400e+03 -1.620000e+03
      vertex   -1.884000e+03 1.159400e+03 -1.620000e+03
    endloop
  endfacet
  facet normal 0.000000e+00 0.000000e+00 -1.000000e+00
    outer loop
      vertex   -2.196000e+03 1.159400e+03 -1.620000e+03
      vertex   -1.884000e+03 1.159400e+03 -1.620000e+03
      vertex   -2.196000e+03 4.744000e+02 -1.620000e+03
    endloop
  endfacet
  facet normal 0.000000e+00 0.000000e+00 -1.000000e+00
    outer loop
      vertex   -2.196000e+03 4.744000e+02 -1.620000e+03
      vertex   -1.884000e+03 1.159400e+03 -1.620000e+03
      vertex   -1.884000e+03 4.744000e+02 -1.620000e+03
    endloop
  endfacet
  facet normal 0.000000e+00 0.000000e+00 -1.000000e+00
    outer loop
      vertex   -4.520000e+03 2.683400e+03 -1.620000e+03
      vertex   3.724000e+03 2.683400e+03 -1.620000e+03
      vertex   -1.884000e+03 1.159400e+03 -1.620000e+03
    endloop
  endfacet
  facet normal 0.000000e+00 0.000000e+00 -1.000000e+00
    outer loop
      vertex   -1.884000e+03 1.159400e+03 -1.620000e+03
      vertex   3.724000e+03 2.683400e+03 -1.620000e+03
      vertex   2.200000e+03 1.159400e+03 -1.620000e+03
    endloop
  endfacet
  facet normal 0.000000e+00 0.000000e+00 -1.000000e+00
    outer loop
      vertex   2.200000e+03 1.159400e+03 -1.620000e+03
      vertex   3.724000e+03 2.683400e+03 -1.620000e+03
      vertex   3.724000e+03 -5.635100e+03 -1.620000e+03
    endloop
  endfacet
  facet normal 0.000000e+00 0.000000e+00 -1.000000e+00
    outer loop
      vertex   2.200000e+03 1.159400e+03 -1.620000e+03
      vertex   3.724000e+03 -5.635100e+03 -1.620000e+03
      vertex   2.200000e+03 -4.111100e+03 -1.620000e+03
    endloop
  endfacet
  facet normal -0.000000e+00 -0.000000e+00 -1.000000e+00
    outer loop
      vertex   2.200000e+03 -4.111100e+03 -1.620000e+03
      vertex   3.724000e+03 -5.635100e+03 -1.620000e+03
      vertex   -2.254000e+03 -4.111100e+03 -1.620000e+03
    endloop
  endfacet
  facet normal 0.000000e+00 -0.000000e+00 -1.000000e+00
    outer loop
      vertex   -2.254000e+03 -4.111100e+03 -1.620000e+03
      vertex   3.724000e+03 -5.635100e+03 -1.620000e+03
      vertex   -4.520000e+03 -5.635100e+03 -1.620000e+03
    endloop
  endfacet
  facet normal -0.000000e+00 0.000000e+00 -1.000000e+00
    outer loop
      vertex   -2.254000e+03 -4.111100e+03 -1.620000e+03
      vertex   -4.520000e+03 -5.635100e+03 -1.620000e+03
      vertex   -2.696000e+03 -3.424100e+03 -1.620000e+03
    endloop
  endfacet
  facet normal -0.000000e+00 0.000000e+00 -1.000000e+00
    outer loop
      vertex   -2.696000e+03 -3.424100e+03 -1.620000e+03
      vertex   -4.520000e+03 -5.635100e+03 -1.620000e+03
      vertex   -2.846000e+03 -3.012100e+03 -1.620000e+03
    endloop
  endfacet
  facet normal 0.000000e+00 0.000000e+00 -1.000000e+00
    outer loop
      vertex   -2.696000e+03 -3.424100e+03 -1.620000e+03
      vertex   -2.846000e+03 -3.012100e+03 -1.620000e+03
      vertex   -2.696000e+03 -3.012100e+03 -1.620000e+03
    endloop
  endfacet
  facet normal -0.000000e+00 0.000000e+00 -1.000000e+00
    outer loop
      vertex   -2.846000e+03 -3.012100e+03 -1.620000e+03
      vertex   -4.520000e+03 -5.635100e+03 -1.620000e+03
      vertex   -2.996000e+03 -2.553100e+03 -1.620000e+03
    endloop
  endfacet
  facet normal -0.000000e+00 0.000000e+00 -1.000000e+00
    outer loop
      vertex   -2.996000e+03 -2.553100e+03 -1.620000e+03
      vertex   -4.520000e+03 -5.635100e+03 -1.620000e+03
      vertex   -4.520000e+03 -6.656000e+02 -1.620000e+03
    endloop
  endfacet
  facet normal 0.000000e+00 0.000000e+00 -1.000000e+00
    outer loop
      vertex   -2.996000e+03 -2.553100e+03 -1.620000e+03
      vertex   -4.520000e+03 -6.656000e+02 -1.620000e+03
      vertex   -2.996000e+03 -6.656000e+02 -1.620000e+03
    endloop
  endfacet
  facet normal 0.000000e+00 0.000000e+00 -1.000000e+00
    outer loop
      vertex   -2.996000e+03 -2.553100e+03 -1.620000e+03
      vertex   -2.846000e+03 -2.553100e+03 -1.620000e+03
      vertex   -2.846000e+03 -3.012100e+03 -1.620000e+03
    endloop
  endfacet
  facet normal 0.000000e+00 0.000000e+00 -1.000000e+00
    outer loop
      vertex   -2.696000e+03 -3.424100e+03 -1.620000e+03
      vertex   -2.254000e+03 -3.424100e+03 -1.620000e+03
      vertex   -2.254000e+03 -4.111100e+03 -1.620000e+03
    endloop
  endfacet
  facet normal 0.000000e+00 -0.000000e+00 1.000000e+00
    outer loop
      vertex   -2.996000e+03 1.134400e+03 1.350000e+03
      vertex   -2.996000e+03 1.159400e+03 1.350000e+03
      vertex   -4.520000e+03 1.134400e+03 1.350000e+03
    endloop
  endfacet
  facet normal 0.000000e+00 0.000000e+00 1.000000e+00
    outer loop
      vertex   -4.520000e+03 1.134400e+03 1.350000e+03
      vertex   -2.996000e+03 1.159400e+03 1.350000e+03
      vertex   -4.520000e+03 2.683400e+03 1.350000e+03
    endloop
  endfacet
  facet normal 0.000000e+00 0.000000e+00 1.000000e+00
    outer loop
      vertex   -4.520000e+03 2.683400e+03 1.350000e+03
      vertex   -2.996000e+03 1.159400e+03 1.350000e+03
      vertex   -2.196000e+03 1.159400e+03 1.350000e+03
    endloop
  endfacet
  facet normal 0.000000e+00 0.000000e+00 1.000000e+00
    outer loop
      vertex   -4.520000e+03 2.683400e+03 1.350000e+03
      vertex   -2.196000e+03 1.159400e+03 1.350000e+03
      vertex   -1.884000e+03 1.159400e+03 1.350000e+03
    endloop
  endfacet
  facet normal 0.000000e+00 0.000000e+00 1.000000e+00
    outer loop
      vertex   -1.884000e+03 1.159400e+03 1.350000e+03
      vertex   -2.196000e+03 1.159400e+03 1.350000e+03
      vertex   -1.884000e+03 4.744000e+02 1.350000e+03
    endloop
  endfacet
  facet normal 0.000000e+00 0.000000e+00 1.000000e+00
    outer loop
      vertex   -1.884000e+03 4.744000e+02 1.350000e+03
      vertex   -2.196000e+03 1.159400e+03 1.350000e+03
      vertex   -2.196000e+03 4.744000e+02 1.350000e+03
    endloop
  endfacet
  facet normal -0.000000e+00 0.000000e+00 1.000000e+00
    outer loop
      vertex   -4.520000e+03 2.683400e+03 1.350000e+03
      vertex   -1.884000e+03 1.159400e+03 1.350000e+03
      vertex   3.724000e+03 2.683400e+03 1.350000e+03
    endloop
  endfacet
  facet normal 0.000000e+00 0.000000e+00 1.000000e+00
    outer loop
      vertex   3.724000e+03 2.683400e+03 1.350000e+03
      vertex   -1.884000e+03 1.159400e+03 1.350000e+03
      vertex   2.200000e+03 1.159400e+03 1.350000e+03
    endloop
  endfacet
  facet normal 0.000000e+00 0.000000e+00 1.000000e+00
    outer loop
      vertex   3.724000e+03 2.683400e+03 1.350000e+03
      vertex   2.200000e+03 1.159400e+03 1.350000e+03
      vertex   3.724000e+03 -5.635100e+03 1.350000e+03
    endloop
  endfacet
  facet normal 0.000000e+00 0.000000e+00 1.000000e+00
    outer loop
      vertex   3.724000e+03 -5.635100e+03 1.350000e+03
      vertex   2.200000e+03 1.159400e+03 1.350000e+03
      vertex   2.200000e+03 -4.111100e+03 1.350000e+03
    endloop
  endfacet
  facet normal 0.000000e+00 0.000000e+00 1.000000e+00
    outer loop
      vertex   3.724000e+03 -5.635100e+03 1.350000e+03
      vertex   2.200000e+03 -4.111100e+03 1.350000e+03
      vertex   -2.254000e+03 -4.111100e+03 1.350000e+03
    endloop
  endfacet
  facet normal 0.000000e+00 0.000000e+00 1.000000e+00
    outer loop
      vertex   -2.254000e+03 -3.424100e+03 1.350000e+03
      vertex   -2.696000e+03 -3.424100e+03 1.350000e+03
      vertex   -2.254000e+03 -4.111100e+03 1.350000e+03
    endloop
  endfacet
  facet normal 0.000000e+00 0.000000e+00 1.000000e+00
    outer loop
      vertex   -2.254000e+03 -4.111100e+03 1.350000e+03
      vertex   -2.696000e+03 -3.424100e+03 1.350000e+03
      vertex   -4.520000e+03 -5.635100e+03 1.350000e+03
    endloop
  endfacet
  facet normal 0.000000e+00 0.000000e+00 1.000000e+00
    outer loop
      vertex   -2.254000e+03 -4.111100e+03 1.350000e+03
      vertex   -4.520000e+03 -5.635100e+03 1.350000e+03
      vertex   3.724000e+03 -5.635100e+03 1.350000e+03
    endloop
  endfacet
  facet normal 0.000000e+00 0.000000e+00 1.000000e+00
    outer loop
      vertex   -2.696000e+03 -3.012100e+03 1.350000e+03
      vertex   -2.846000e+03 -3.012100e+03 1.350000e+03
      vertex   -2.696000e+03 -3.424100e+03 1.350000e+03
    endloop
  endfacet
  facet normal 0.000000e+00 0.000000e+00 1.000000e+00
    outer loop
      vertex   -2.696000e+03 -3.424100e+03 1.350000e+03
      vertex   -2.846000e+03 -3.012100e+03 1.350000e+03
      vertex   -4.520000e+03 -5.635100e+03 1.350000e+03
    endloop
  endfacet
  facet normal 0.000000e+00 0.000000e+00 1.000000e+00
    outer loop
      vertex   -2.846000e+03 -2.553100e+03 1.350000e+03
      vertex   -2.996000e+03 -2.553100e+03 1.350000e+03
      vertex   -2.846000e+03 -3.012100e+03 1.350000e+03
    endloop
  endfacet
  facet normal 0.000000e+00 0.000000e+00 1.000000e+00
    outer loop
      vertex   -2.846000e+03 -3.012100e+03 1.350000e+03
      vertex   -2.996000e+03 -2.553100e+03 1.350000e+03
      vertex   -4.520000e+03 -5.635100e+03 1.350000e+03
    endloop
  endfacet
  facet normal 0.000000e+00 0.000000e+00 1.000000e+00
    outer loop
      vertex   -2.996000e+03 -6.656000e+02 1.350000e+03
      vertex   -4.520000e+03 -6.656000e+02 1.350000e+03
      vertex   -2.996000e+03 -2.553100e+03 1.350000e+03
    endloop
  endfacet
  facet normal 0.000000e+00 0.000000e+00 1.000000e+00
    outer loop
      vertex   -2.996000e+03 -2.553100e+03 1.350000e+03
      vertex   -4.520000e+03 -6.656000e+02 1.350000e+03
      vertex   -4.520000e+03 -5.635100e+03 1.350000e+03
    endloop
  endfacet
  facet normal -1.000000e+00 0.000000e+00 0.000000e+00
    outer loop
      vertex   -4.520000e+03 -5.635100e+03 1.350000e+03
      vertex   -4.520000e+03 -6.656000e+02 1.350000e+03
      vertex   -4.520000e+03 -5.635100e+03 -1.620000e+03
    endloop
  endfacet
  facet normal -1.000000e+00 0.000000e+00 0.000000e+00
    outer loop
      vertex   -4.520000e+03 -5.635100e+03 -1.620000e+03
      vertex   -4.520000e+03 -6.656000e+02 1.350000e+03
      vertex   -4.520000e+03 -6.656000e+02 -1.620000e+03
    endloop
  endfacet
  facet normal 0.000000e+00 1.000000e+00 -0.000000e+00
    outer loop
      vertex   3.724000e+03 2.683400e+03 -1.620000e+03
      vertex   -4.520000e+03 2.683400e+03 -1.620000e+03
      vertex   3.724000e+03 2.683400e+03 1.350000e+03
    endloop
  endfacet
  facet normal 0.000000e+00 1.000000e+00 0.000000e+00
    outer loop
      vertex   3.724000e+03 2.683400e+03 1.350000e+03
      vertex   -4.520000e+03 2.683400e+03 -1.620000e+03
      vertex   -4.520000e+03 2.683400e+03 1.350000e+03
    endloop
  endfacet
  facet normal 1.000000e+00 0.000000e+00 0.000000e+00
    outer loop
      vertex   3.724000e+03 -5.635100e+03 -1.620000e+03
      vertex   3.724000e+03 2.683400e+03 -1.620000e+03
      vertex   3.724000e+03 -5.635100e+03 1.350000e+03
    endloop
  endfacet
  facet normal 1.000000e+00 -0.000000e+00 0.000000e+00
    outer loop
      vertex   3.724000e+03 -5.635100e+03 1.350000e+03
      vertex   3.724000e+03 2.683400e+03 -1.620000e+03
      vertex   3.724000e+03 2.683400e+03 1.350000e+03
    endloop
  endfacet
  facet normal 1.000000e+00 0.000000e+00 0.000000e+00
    outer loop
      vertex   -2.996000e+03 1.159400e+03 1.350000e+03
      vertex   -2.996000e+03 1.134400e+03 1.350000e+03
      vertex   -2.996000e+03 1.159400e+03 -1.620000e+03
    endloop
  endfacet
  facet normal 1.000000e+00 0.000000e+00 0.000000e+00
    outer loop
      vertex   -2.996000e+03 1.159400e+03 -1.620000e+03
      vertex   -2.996000e+03 1.134400e+03 1.350000e+03
      vertex   -2.996000e+03 1.134400e+03 -1.620000e+03
    endloop
  endfacet
  facet normal 0.000000e+00 1.000000e+00 -0.000000e+00
    outer loop
      vertex   -2.846000e+03 -2.553100e+03 -1.620000e+03
      vertex   -2.996000e+03 -2.553100e+03 -1.620000e+03
      vertex   -2.846000e+03 -2.553100e+03 1.350000e+03
    endloop
  endfacet
  facet normal 0.000000e+00 1.000000e+00 0.000000e+00
    outer loop
      vertex   -2.846000e+03 -2.553100e+03 1.350000e+03
      vertex   -2.996000e+03 -2.553100e+03 -1.620000e+03
      vertex   -2.996000e+03 -2.553100e+03 1.350000e+03
    endloop
  endfacet
  facet normal 1.000000e+00 0.000000e+00 0.000000e+00
    outer loop
      vertex   -2.846000e+03 -3.012100e+03 -1.620000e+03
      vertex   -2.846000e+03 -2.553100e+03 -1.620000e+03
      vertex   -2.846000e+03 -3.012100e+03 1.350000e+03
    endloop
  endfacet
  facet normal 1.000000e+00 -0.000000e+00 0.000000e+00
    outer loop
      vertex   -2.846000e+03 -3.012100e+03 1.350000e+03
      vertex   -2.846000e+03 -2.553100e+03 -1.620000e+03
      vertex   -2.846000e+03 -2.553100e+03 1.350000e+03
    endloop
  endfacet
  facet normal 0.000000e+00 1.000000e+00 -0.000000e+00
    outer loop
      vertex   -2.696000e+03 -3.012100e+03 -1.620000e+03
      vertex   -2.846000e+03 -3.012100e+03 -1.620000e+03
      vertex   -2.696000e+03 -3.012100e+03 1.350000e+03
    endloop
  endfacet
  facet normal 0.000000e+00 1.000000e+00 0.000000e+00
    outer loop
      vertex   -2.696000e+03 -3.012100e+03 1.350000e+03
      vertex   -2.846000e+03 -3.012100e+03 -1.620000e+03
      vertex   -2.846000e+03 -3.012100e+03 1.350000e+03
    endloop
  endfacet
  facet normal 1.000000e+00 0.000000e+00 0.000000e+00
    outer loop
      vertex   -2.696000e+03 -3.424100e+03 -1.620000e+03
      vertex   -2.696000e+03 -3.012100e+03 -1.620000e+03
      vertex   -2.696000e+03 -3.424100e+03 1.350000e+03
    endloop
  endfacet
  facet normal 1.000000e+00 -0.000000e+00 0.000000e+00
    outer loop
      vertex   -2.696000e+03 -3.424100e+03 1.350000e+03
      vertex   -2.696000e+03 -3.012100e+03 -1.620000e+03
      vertex   -2.696000e+03 -3.012100e+03 1.350000e+03
    endloop
  endfacet
  facet normal 0.000000e+00 1.000000e+00 -0.000000e+00
    outer loop
      vertex   -2.254000e+03 -3.424100e+03 -1.620000e+03
      vertex   -2.696000e+03 -3.424100e+03 -1.620000e+03
      vertex   -2.254000e+03 -3.424100e+03 1.350000e+03
    endloop
  endfacet
  facet normal 0.000000e+00 1.000000e+00 0.000000e+00
    outer loop
      vertex   -2.254000e+03 -3.424100e+03 1.350000e+03
      vertex   -2.696000e+03 -3.424100e+03 -1.620000e+03
      vertex   -2.696000e+03 -3.424100e+03 1.350000e+03
    endloop
  endfacet
  facet normal 1.000000e+00 0.000000e+00 0.000000e+00
    outer loop
      vertex   -2.254000e+03 -4.111100e+03 -1.620000e+03
      vertex   -2.254000e+03 -3.424100e+03 -1.620000e+03
      vertex   -2.254000e+03 -4.111100e+03 1.350000e+03
    endloop
  endfacet
  facet normal 1.000000e+00 -0.000000e+00 0.000000e+00
    outer loop
      vertex   -2.254000e+03 -4.111100e+03 1.350000e+03
      vertex   -2.254000e+03 -3.424100e+03 -1.620000e+03
      vertex   -2.254000e+03 -3.424100e+03 1.350000e+03
    endloop
  endfacet
  facet normal 0.000000e+00 1.000000e+00 -0.000000e+00
    outer loop
      vertex   2.200000e+03 -4.111100e+03 -1.620000e+03
      vertex   -2.254000e+03 -4.111100e+03 -1.620000e+03
      vertex   2.200000e+03 -4.111100e+03 1.350000e+03
    endloop
  endfacet
  facet normal 0.000000e+00 1.000000e+00 0.000000e+00
    outer loop
      vertex   2.200000e+03 -4.111100e+03 1.350000e+03
      vertex   -2.254000e+03 -4.111100e+03 -1.620000e+03
      vertex   -2.254000e+03 -4.111100e+03 1.350000e+03
    endloop
  endfacet
  facet normal -1.000000e+00 0.000000e+00 0.000000e+00
    outer loop
      vertex   2.200000e+03 1.159400e+03 -1.620000e+03
      vertex   2.200000e+03 -4.111100e+03 -1.620000e+03
      vertex   2.200000e+03 1.159400e+03 1.350000e+03
    endloop
  endfacet
  facet normal -1.000000e+00 -0.000000e+00 0.000000e+00
    outer loop
      vertex   2.200000e+03 1.159400e+03 1.350000e+03
      vertex   2.200000e+03 -4.111100e+03 -1.620000e+03
      vertex   2.200000e+03 -4.111100e+03 1.350000e+03
    endloop
  endfacet
  facet normal 0.000000e+00 -1.000000e+00 0.000000e+00
    outer loop
      vertex   2.200000e+03 1.159400e+03 -1.620000e+03
      vertex   2.200000e+03 1.159400e+03 1.350000e+03
      vertex   -1.884000e+03 1.159400e+03 -1.620000e+03
    endloop
  endfacet
  facet normal 0.000000e+00 -1.000000e+00 0.000000e+00
    outer loop
      vertex   -1.884000e+03 1.159400e+03 -1.620000e+03
      vertex   2.200000e+03 1.159400e+03 1.350000e+03
      vertex   -1.884000e+03 1.159400e+03 1.350000e+03
    endloop
  endfacet
  facet normal 1.000000e+00 0.000000e+00 0.000000e+00
    outer loop
      vertex   -1.884000e+03 4.744000e+02 -1.620000e+03
      vertex   -1.884000e+03 1.159400e+03 -1.620000e+03
      vertex   -1.884000e+03 4.744000e+02 1.350000e+03
    endloop
  endfacet
  facet normal 1.000000e+00 -0.000000e+00 0.000000e+00
    outer loop
      vertex   -1.884000e+03 4.744000e+02 1.350000e+03
      vertex   -1.884000e+03 1.159400e+03 -1.620000e+03
      vertex   -1.884000e+03 1.159400e+03 1.350000e+03
    endloop
  endfacet
  facet normal 0.000000e+00 -1.000000e+00 0.000000e+00
    outer loop
      vertex   -2.196000e+03 4.744000e+02 -1.620000e+03
      vertex   -1.884000e+03 4.744000e+02 -1.620000e+03
      vertex   -2.196000e+03 4.744000e+02 1.350000e+03
    endloop
  endfacet
  facet normal 0.000000e+00 -1.000000e+00 0.000000e+00
    outer loop
      vertex   -2.196000e+03 4.744000e+02 1.350000e+03
      vertex   -1.884000e+03 4.744000e+02 -1.620000e+03
      vertex   -1.884000e+03 4.744000e+02 1.350000e+03
    endloop
  endfacet
  facet normal -1.000000e+00 0.000000e+00 0.000000e+00
    outer loop
      vertex   -2.196000e+03 1.159400e+03 -1.620000e+03
      vertex   -2.196000e+03 4.744000e+02 -1.620000e+03
      vertex   -2.196000e+03 1.159400e+03 1.350000e+03
    endloop
  endfacet
  facet normal -1.000000e+00 -0.000000e+00 0.000000e+00
    outer loop
      vertex   -2.196000e+03 1.159400e+03 1.350000e+03
      vertex   -2.196000e+03 4.744000e+02 -1.620000e+03
      vertex   -2.196000e+03 4.744000e+02 1.350000e+03
    endloop
  endfacet
  facet normal 0.000000e+00 -1.000000e+00 0.000000e+00
    outer loop
      vertex   -2.996000e+03 1.159400e+03 -1.620000e+03
      vertex   -2.196000e+03 1.159400e+03 -1.620000e+03
      vertex   -2.996000e+03 1.159400e+03 1.350000e+03
    endloop
  endfacet
  facet normal 0.000000e+00 -1.000000e+00 0.000000e+00
    outer loop
      vertex   -2.996000e+03 1.159400e+03 1.350000e+03
      vertex   -2.196000e+03 1.159400e+03 -1.620000e+03
      vertex   -2.196000e+03 1.159400e+03 1.350000e+03
    endloop
  endfacet
  facet normal 0.000000e+00 -1.000000e+00 0.000000e+00
    outer loop
      vertex   -4.520000e+03 -5.635100e+03 -1.620000e+03
      vertex   3.724000e+03 -5.635100e+03 -1.620000e+03
      vertex   -4.520000e+03 -5.635100e+03 1.350000e+03
    endloop
  endfacet
  facet normal 0.000000e+00 -1.000000e+00 0.000000e+00
    outer loop
      vertex   -4.520000e+03 -5.635100e+03 1.350000e+03
      vertex   3.724000e+03 -5.635100e+03 -1.620000e+03
      vertex   3.724000e+03 -5.635100e+03 1.350000e+03
    endloop
  endfacet
  facet normal 0.000000e+00 1.000000e+00 0.000000e+00
    outer loop
      vertex   -2.996000e+03 -6.656000e+02 1.350000e+03
      vertex   -2.996000e+03 -6.656000e+02 -1.620000e+03
      vertex   -4.520000e+03 -6.656000e+02 1.350000e+03
    endloop
  endfacet
  facet normal 0.000000e+00 1.000000e+00 0.000000e+00
    outer loop
      vertex   -4.520000e+03 -6.656000e+02 1.350000e+03
      vertex   -2.996000e+03 -6.656000e+02 -1.620000e+03
      vertex   -4.520000e+03 -6.656000e+02 -1.620000e+03
    endloop
  endfacet
  facet normal -0.000000e+00 -1.000000e+00 -0.000000e+00
    outer loop
      vertex   -2.996000e+03 1.134400e+03 1.350000e+03
      vertex   -4.520000e+03 1.134400e+03 1.350000e+03
      vertex   -2.996000e+03 1.134400e+03 -1.620000e+03
    endloop
  endfacet
  facet normal 0.000000e+00 -1.000000e+00 0.000000e+00
    outer loop
      vertex   -2.996000e+03 1.134400e+03 -1.620000e+03
      vertex   -4.520000e+03 1.134400e+03 1.350000e+03
      vertex   -4.520000e+03 1.134400e+03 -1.620000e+03
    endloop
  endfacet
endsolid
