solid ASCII
  facet normal 0.000000e+00 0.000000e+00 -1.000000e+00
    outer loop
      vertex   -6.050000e+02 -6.110000e+01 -5.650000e+02
      vertex   -1.150000e+02 -6.110000e+01 -5.650000e+02
      vertex   -6.050000e+02 -1.811000e+02 -5.650000e+02
    endloop
  endfacet
  facet normal 0.000000e+00 0.000000e+00 -1.000000e+00
    outer loop
      vertex   -6.050000e+02 -1.811000e+02 -5.650000e+02
      vertex   -1.150000e+02 -6.110000e+01 -5.650000e+02
      vertex   -1.150000e+02 -1.811000e+02 -5.650000e+02
    endloop
  endfacet
  facet normal 0.000000e+00 -1.000000e+00 0.000000e+00
    outer loop
      vertex   -1.150000e+02 -1.811000e+02 -5.650000e+02
      vertex   -1.150000e+02 -1.811000e+02 -3.050000e+02
      vertex   -6.050000e+02 -1.811000e+02 -5.650000e+02
    endloop
  endfacet
  facet normal 0.000000e+00 -1.000000e+00 0.000000e+00
    outer loop
      vertex   -6.050000e+02 -1.811000e+02 -5.650000e+02
      vertex   -1.150000e+02 -1.811000e+02 -3.050000e+02
      vertex   -6.050000e+02 -1.811000e+02 5.550000e+02
    endloop
  endfacet
  facet normal 0.000000e+00 -1.000000e+00 0.000000e+00
    outer loop
      vertex   -6.050000e+02 -1.811000e+02 5.550000e+02
      vertex   -1.150000e+02 -1.811000e+02 -3.050000e+02
      vertex   1.050000e+02 -1.811000e+02 1.560299e+02
    endloop
  endfacet
  facet normal 0.000000e+00 -1.000000e+00 0.000000e+00
    outer loop
      vertex   -6.050000e+02 -1.811000e+02 5.550000e+02
      vertex   1.050000e+02 -1.811000e+02 1.560299e+02
      vertex   1.050000e+02 -1.811000e+02 5.550000e+02
    endloop
  endfacet
  facet normal 0.000000e+00 -1.000000e+00 0.000000e+00
    outer loop
      vertex   -1.150000e+02 -1.811000e+02 -3.050000e+02
      vertex   1.150000e+02 -1.811000e+02 -3.050000e+02
      vertex   1.050000e+02 -1.811000e+02 1.560299e+02
    endloop
  endfacet
  facet normal 0.000000e+00 -1.000000e+00 0.000000e+00
    outer loop
      vertex   1.050000e+02 -1.811000e+02 1.560299e+02
      vertex   1.150000e+02 -1.811000e+02 -3.050000e+02
      vertex   6.050000e+02 -1.811000e+02 1.560299e+02
    endloop
  endfacet
  facet normal 0.000000e+00 -1.000000e+00 -0.000000e+00
    outer loop
      vertex   6.050000e+02 -1.811000e+02 1.560299e+02
      vertex   1.150000e+02 -1.811000e+02 -3.050000e+02
      vertex   6.050000e+02 -1.811000e+02 -5.650000e+02
    endloop
  endfacet
  facet normal 0.000000e+00 -1.000000e+00 0.000000e+00
    outer loop
      vertex   6.050000e+02 -1.811000e+02 -5.650000e+02
      vertex   1.150000e+02 -1.811000e+02 -3.050000e+02
      vertex   1.150000e+02 -1.811000e+02 -5.650000e+02
    endloop
  endfacet
  facet normal 0.000000e+00 1.000000e+00 0.000000e+00
    outer loop
      vertex   1.150000e+02 -6.110000e+01 -5.650000e+02
      vertex   1.150000e+02 -6.110000e+01 -3.050000e+02
      vertex   6.050000e+02 -6.110000e+01 -5.650000e+02
    endloop
  endfacet
  facet normal 0.000000e+00 1.000000e+00 -0.000000e+00
    outer loop
      vertex   6.050000e+02 -6.110000e+01 -5.650000e+02
      vertex   1.150000e+02 -6.110000e+01 -3.050000e+02
      vertex   6.050000e+02 -6.110000e+01 1.560299e+02
    endloop
  endfacet
  facet normal 0.000000e+00 1.000000e+00 0.000000e+00
    outer loop
      vertex   6.050000e+02 -6.110000e+01 1.560299e+02
      vertex   1.150000e+02 -6.110000e+01 -3.050000e+02
      vertex   1.050000e+02 -6.110000e+01 1.560299e+02
    endloop
  endfacet
  facet normal 0.000000e+00 1.000000e+00 0.000000e+00
    outer loop
      vertex   1.050000e+02 -6.110000e+01 1.560299e+02
      vertex   1.150000e+02 -6.110000e+01 -3.050000e+02
      vertex   -1.150000e+02 -6.110000e+01 -3.050000e+02
    endloop
  endfacet
  facet normal 0.000000e+00 1.000000e+00 0.000000e+00
    outer loop
      vertex   1.050000e+02 -6.110000e+01 1.560299e+02
      vertex   -1.150000e+02 -6.110000e+01 -3.050000e+02
      vertex   -6.050000e+02 -6.110000e+01 5.550000e+02
    endloop
  endfacet
  facet normal 0.000000e+00 1.000000e+00 0.000000e+00
    outer loop
      vertex   -6.050000e+02 -6.110000e+01 5.550000e+02
      vertex   -1.150000e+02 -6.110000e+01 -3.050000e+02
      vertex   -6.050000e+02 -6.110000e+01 -5.650000e+02
    endloop
  endfacet
  facet normal 0.000000e+00 1.000000e+00 0.000000e+00
    outer loop
      vertex   -6.050000e+02 -6.110000e+01 -5.650000e+02
      vertex   -1.150000e+02 -6.110000e+01 -3.050000e+02
      vertex   -1.150000e+02 -6.110000e+01 -5.650000e+02
    endloop
  endfacet
  facet normal -0.000000e+00 1.000000e+00 0.000000e+00
    outer loop
      vertex   -6.050000e+02 -6.110000e+01 5.550000e+02
      vertex   1.050000e+02 -6.110000e+01 5.550000e+02
      vertex   1.050000e+02 -6.110000e+01 1.560299e+02
    endloop
  endfacet
  facet normal -1.000000e+00 -0.000000e+00 -0.000000e+00
    outer loop
      vertex   -6.050000e+02 -6.110000e+01 5.550000e+02
      vertex   -6.050000e+02 -6.110000e+01 -5.650000e+02
      vertex   -6.050000e+02 -1.811000e+02 5.550000e+02
    endloop
  endfacet
  facet normal -1.000000e+00 0.000000e+00 0.000000e+00
    outer loop
      vertex   -6.050000e+02 -1.811000e+02 5.550000e+02
      vertex   -6.050000e+02 -6.110000e+01 -5.650000e+02
      vertex   -6.050000e+02 -1.811000e+02 -5.650000e+02
    endloop
  endfacet
  facet normal 0.000000e+00 0.000000e+00 -1.000000e+00
    outer loop
      vertex   1.150000e+02 -6.110000e+01 -5.650000e+02
      vertex   6.050000e+02 -6.110000e+01 -5.650000e+02
      vertex   1.150000e+02 -1.811000e+02 -5.650000e+02
    endloop
  endfacet
  facet normal 0.000000e+00 0.000000e+00 -1.000000e+00
    outer loop
      vertex   1.150000e+02 -1.811000e+02 -5.650000e+02
      vertex   6.050000e+02 -6.110000e+01 -5.650000e+02
      vertex   6.050000e+02 -1.811000e+02 -5.650000e+02
    endloop
  endfacet
  facet normal 1.000000e+00 0.000000e+00 -0.000000e+00
    outer loop
      vertex   6.050000e+02 -6.110000e+01 -5.650000e+02
      vertex   6.050000e+02 -6.110000e+01 1.560299e+02
      vertex   6.050000e+02 -1.811000e+02 -5.650000e+02
    endloop
  endfacet
  facet normal 1.000000e+00 0.000000e+00 0.000000e+00
    outer loop
      vertex   6.050000e+02 -1.811000e+02 -5.650000e+02
      vertex   6.050000e+02 -6.110000e+01 1.560299e+02
      vertex   6.050000e+02 -1.811000e+02 1.560299e+02
    endloop
  endfacet
  facet normal 0.000000e+00 0.000000e+00 1.000000e+00
    outer loop
      vertex   6.050000e+02 -6.110000e+01 1.560299e+02
      vertex   1.050000e+02 -6.110000e+01 1.560299e+02
      vertex   6.050000e+02 -1.811000e+02 1.560299e+02
    endloop
  endfacet
  facet normal 0.000000e+00 0.000000e+00 1.000000e+00
    outer loop
      vertex   6.050000e+02 -1.811000e+02 1.560299e+02
      vertex   1.050000e+02 -6.110000e+01 1.560299e+02
      vertex   1.050000e+02 -1.811000e+02 1.560299e+02
    endloop
  endfacet
  facet normal 1.000000e+00 0.000000e+00 -0.000000e+00
    outer loop
      vertex   1.050000e+02 -6.110000e+01 1.560299e+02
      vertex   1.050000e+02 -6.110000e+01 5.550000e+02
      vertex   1.050000e+02 -1.811000e+02 1.560299e+02
    endloop
  endfacet
  facet normal 1.000000e+00 0.000000e+00 0.000000e+00
    outer loop
      vertex   1.050000e+02 -1.811000e+02 1.560299e+02
      vertex   1.050000e+02 -6.110000e+01 5.550000e+02
      vertex   1.050000e+02 -1.811000e+02 5.550000e+02
    endloop
  endfacet
  facet normal 0.000000e+00 0.000000e+00 1.000000e+00
    outer loop
      vertex   1.050000e+02 -6.110000e+01 5.550000e+02
      vertex   -6.050000e+02 -6.110000e+01 5.550000e+02
      vertex   1.050000e+02 -1.811000e+02 5.550000e+02
    endloop
  endfacet
  facet normal 0.000000e+00 0.000000e+00 1.000000e+00
    outer loop
      vertex   1.050000e+02 -1.811000e+02 5.550000e+02
      vertex   -6.050000e+02 -6.110000e+01 5.550000e+02
      vertex   -6.050000e+02 -1.811000e+02 5.550000e+02
    endloop
  endfacet
  facet normal 0.000000e+00 0.000000e+00 -1.000000e+00
    outer loop
      vertex   -1.150000e+02 -1.811000e+02 -3.050000e+02
      vertex   -1.150000e+02 -6.110000e+01 -3.050000e+02
      vertex   1.150000e+02 -1.811000e+02 -3.050000e+02
    endloop
  endfacet
  facet normal 0.000000e+00 0.000000e+00 -1.000000e+00
    outer loop
      vertex   1.150000e+02 -1.811000e+02 -3.050000e+02
      vertex   -1.150000e+02 -6.110000e+01 -3.050000e+02
      vertex   1.150000e+02 -6.110000e+01 -3.050000e+02
    endloop
  endfacet
  facet normal 1.000000e+00 -0.000000e+00 0.000000e+00
    outer loop
      vertex   -1.150000e+02 -1.811000e+02 -3.050000e+02
      vertex   -1.150000e+02 -1.811000e+02 -5.650000e+02
      vertex   -1.150000e+02 -6.110000e+01 -3.050000e+02
    endloop
  endfacet
  facet normal 1.000000e+00 0.000000e+00 0.000000e+00
    outer loop
      vertex   -1.150000e+02 -6.110000e+01 -3.050000e+02
      vertex   -1.150000e+02 -1.811000e+02 -5.650000e+02
      vertex   -1.150000e+02 -6.110000e+01 -5.650000e+02
    endloop
  endfacet
  facet normal -1.000000e+00 0.000000e+00 0.000000e+00
    outer loop
      vertex   1.150000e+02 -1.811000e+02 -5.650000e+02
      vertex   1.150000e+02 -1.811000e+02 -3.050000e+02
      vertex   1.150000e+02 -6.110000e+01 -5.650000e+02
    endloop
  endfacet
  facet normal -1.000000e+00 0.000000e+00 0.000000e+00
    outer loop
      vertex   1.150000e+02 -6.110000e+01 -5.650000e+02
      vertex   1.150000e+02 -1.811000e+02 -3.050000e+02
      vertex   1.150000e+02 -6.110000e+01 -3.050000e+02
    endloop
  endfacet
endsolid
